<svg width="16" height="16" viewBox="0 0 16 16" fill="none" xmlns="http://www.w3.org/2000/svg">
<path d="M11.3334 7.20297C11.3334 6.97256 11.3334 6.85735 11.3681 6.75465C11.4689 6.45629 11.7346 6.34051 12.0008 6.21926C12.3 6.08295 12.4497 6.01479 12.5979 6.0028C12.7662 5.98919 12.9349 6.02545 13.0787 6.10619C13.2694 6.21323 13.4025 6.41662 13.5386 6.58201C14.1675 7.3459 14.482 7.72784 14.5971 8.14904C14.6899 8.48894 14.6899 8.84439 14.5971 9.1843C14.4292 9.79862 13.899 10.3136 13.5066 10.7903C13.3058 11.0341 13.2054 11.156 13.0787 11.2271C12.9349 11.3079 12.7662 11.3441 12.5979 11.3305C12.4497 11.3185 12.3 11.2504 12.0008 11.1141C11.7346 10.9928 11.4689 10.877 11.3681 10.5787C11.3334 10.476 11.3334 10.3608 11.3334 10.1304V7.20297Z" stroke="#64748B"/>
<path d="M4.66663 7.20292C4.66663 6.91275 4.65848 6.65198 4.4239 6.44797C4.33858 6.37377 4.22546 6.32225 3.99923 6.2192C3.69996 6.0829 3.55033 6.01474 3.40207 6.00275C2.95724 5.96677 2.71791 6.27038 2.46138 6.58196C1.83246 7.34585 1.518 7.72779 1.40294 8.14899C1.31008 8.48889 1.31008 8.84434 1.40294 9.18425C1.57076 9.79857 2.10097 10.3135 2.49343 10.7902C2.74082 11.0907 2.97714 11.3648 3.40207 11.3305C3.55033 11.3185 3.69996 11.2503 3.99923 11.114C4.22546 11.011 4.33858 10.9595 4.4239 10.8853C4.65848 10.6813 4.66663 10.4205 4.66663 10.1303V7.20292Z" stroke="#64748B"/>
<path d="M3.33337 6C3.33337 3.79086 5.42271 2 8.00004 2C10.5774 2 12.6667 3.79086 12.6667 6" stroke="#64748B" stroke-linecap="square" stroke-linejoin="round"/>
<path d="M12.6666 11.3333V11.8667C12.6666 13.0449 11.4727 14 9.99996 14H8.66663" stroke="#64748B" stroke-linecap="round" stroke-linejoin="round"/>
</svg>
